<svg width="16" height="16" fill="none" xmlns="http://www.w3.org/2000/svg"><path d="M13.676 2.363a.235.235 0 00-.334.332 7.48 7.48 0 012.186 5.2 1.873 1.873 0 00-1.745 1.867c0 .682.364 1.296.946 1.626a7.548 7.548 0 01-1.405 1.936 7.478 7.478 0 01-3.76 2.043 1.684 1.684 0 00-3.127 0 7.478 7.478 0 01-3.761-2.043A7.48 7.48 0 01.47 8c0-1.253.304-2.458.877-3.533a3.352 3.352 0 002.478.073.235.235 0 00-.162-.442 2.858 2.858 0 01-.986.174c-.381 0-.748-.072-1.094-.216A7.585 7.585 0 015.498.894a2.857 2.857 0 01-1.02 2.74.235.235 0 10.296.367A3.325 3.325 0 005.95.751 7.566 7.566 0 018 .472c1.688 0 3.284.546 4.614 1.58a.235.235 0 00.289-.373A7.922 7.922 0 008 0a7.948 7.948 0 00-5.657 2.343A7.948 7.948 0 000 8c0 2.137.832 4.146 2.343 5.657A7.947 7.947 0 008 16a7.947 7.947 0 005.657-2.343A7.947 7.947 0 0016 8a7.95 7.95 0 00-2.324-5.637zM6.914 15.452a1.214 1.214 0 012.172 0 7.627 7.627 0 01-2.172 0zm7.34-5.69c0-.728.557-1.327 1.267-1.394a7.494 7.494 0 01-.594 2.591 1.394 1.394 0 01-.674-1.197z" fill="#fff"/><path d="M10.152 7.524h-.01a.235.235 0 10.007.47 2.04 2.04 0 002.037-2.036 2.04 2.04 0 00-2.037-2.037 2.04 2.04 0 00-2.037 2.037c0 .697.351 1.339.94 1.716a.235.235 0 00.254-.396 1.561 1.561 0 01-.724-1.32c0-.864.703-1.567 1.567-1.567s1.567.703 1.567 1.567c0 .863-.702 1.565-1.564 1.566zM4.889 10.8a1.274 1.274 0 000-2.545 1.274 1.274 0 000 2.545zm0-2.075a.803.803 0 010 1.604.803.803 0 010-1.604zM2.964 6.008a.87.87 0 000 1.737.87.87 0 000-1.737zm0 1.267a.398.398 0 110-.797.398.398 0 010 .797zm6.91 5.938a1.183 1.183 0 000-2.365 1.183 1.183 0 000 2.364zm0-1.894a.712.712 0 11-.002 1.425.712.712 0 01.002-1.425zm2.622-1.777a.906.906 0 00-1.81 0 .906.906 0 001.81 0zm-1.34 0a.435.435 0 11.87 0 .435.435 0 01-.87 0z" fill="#fff"/></svg>