<svg width="25" height="25" fill="none" xmlns="http://www.w3.org/2000/svg"><g clip-path="url(#clip0)"><path d="M24.18 12.452a.5.5 0 00-.11-.545l-9-9a.5.5 0 00-.706.707l8.147 8.147H.718a.5.5 0 000 1H22.51l-8.146 8.146a.5.5 0 10.694.72l.013-.013 9-9a.5.5 0 00.108-.162z" fill="#2196F3"/><path d="M14.718 21.76a.5.5 0 01-.354-.853l8.647-8.646-8.647-8.646a.5.5 0 01.707-.707l9 9a.5.5 0 010 .707l-9 9a.5.5 0 01-.353.146z" fill="#585858"/><path d="M23.718 12.76h-23a.5.5 0 110-1h23a.5.5 0 010 1z" fill="#585858"/></g><defs><clipPath id="clip0"><path fill="#fff" transform="translate(.218 .267)" d="M0 0h24v24H0z"/></clipPath></defs></svg>