<svg width="16" height="16" fill="none" xmlns="http://www.w3.org/2000/svg"><g clip-path="url(#clip0)" fill="#2058C6"><path d="M8 3.233c-1.081 0-2.1.353-2.948 1.02a.242.242 0 00.3.38A4.24 4.24 0 018 3.716 4.289 4.289 0 0112.284 8 4.289 4.289 0 018 12.284 4.289 4.289 0 013.716 8c0-.985.325-1.91.94-2.677a.242.242 0 00-.378-.302A4.78 4.78 0 003.233 8 4.773 4.773 0 008 12.768 4.773 4.773 0 0012.767 8 4.773 4.773 0 008 3.233zM8 0a.242.242 0 00-.242.242v1.293a.242.242 0 10.484 0V.242A.242.242 0 008 0zM4.977 2.28L4.33 1.16a.242.242 0 00-.418.242l.646 1.12a.242.242 0 10.419-.242zM2.522 4.558l-1.12-.646a.242.242 0 00-.242.418l1.12.647a.24.24 0 00.33-.089.242.242 0 00-.088-.33zm-.987 3.2H.242a.242.242 0 100 .484h1.293a.242.242 0 100-.484zm1.075 3.354a.242.242 0 00-.33-.089l-1.12.647a.242.242 0 00.242.418l1.12-.646a.242.242 0 00.088-.33zm2.278 2.278a.242.242 0 00-.33.088l-.646 1.12a.242.242 0 00.418.242l.647-1.12a.242.242 0 00-.089-.33zM8 14.223a.242.242 0 00-.242.242v1.293a.242.242 0 10.484 0v-1.293A.242.242 0 008 14.223zm4.088.375l-.646-1.12a.242.242 0 00-.419.242l.647 1.12a.242.242 0 10.418-.242zm2.752-2.928l-1.12-.647a.242.242 0 10-.242.419l1.12.646a.24.24 0 00.33-.088.242.242 0 00-.088-.33zm.918-3.912h-1.293a.242.242 0 100 .484h1.293a.242.242 0 100-.484zM14.928 4a.242.242 0 00-.33-.088l-1.12.646a.242.242 0 10.242.419l1.12-.647a.242.242 0 00.088-.33zM12 1.072a.242.242 0 00-.33.088l-.647 1.12a.242.242 0 10.419.242l.646-1.12a.242.242 0 00-.088-.33z"/></g><defs><clipPath id="clip0"><path fill="#fff" d="M0 0h16v16H0z"/></clipPath></defs></svg>